/* XPM */
static const char * gototask_xpm[] = {
"16 16 8 1",
" 	c None",
".	c #C0C0C0",
"+	c #000000",
"@	c #7F7F7F",
"#	c #0000FF",
"$	c #FFFFFF",
"%	c #BFC8CF",
"&	c #FEFFFF",
"................",
"++++............",
"++++@@@.........",
"..+...@.........",
"....##########..",
"....##########@@",
"....##########..",
".+++.....++...@@",
"+$+$++%++$+...@@",
"++$+$$+$$$+...@@",
"+$+$++$$$+......",
"$+&+$$$$+.......",
"$$+$$$$+........",
"$+$$+++.........",
"$$$+$$+.........",
"$$$$$++........."};
