/* XPM */
static const char * infotask_xpm[] = {
"16 16 7 1",
" 	c None",
".	c #C0C0C0",
"+	c #000000",
"@	c #FFFFFF",
"#	c #7F7F7F",
"$	c #7E8186",
"%	c #00010E",
"................",
"................",
"..+++.+++.+++...",
".+@@@+###+##$+..",
".+@@@++++++++++.",
".+@#@@@@@@@@@@+.",
".+@@@@@@@@@@@@+.",
".+@+#++#+@++@@+.",
".+@@@@@@@@@@@@+.",
".+@@@@@@@@@@@@+.",
".+@%+#+++@+#@@+.",
".+@@@@@@@@@@@@+.",
".+@@@@@@@@@@@@+.",
".++++++++++++++.",
"................",
"................"};
