/* XPM */
static const char * linktasks_xpm[] = {
"16 16 5 1",
" 	c None",
".	c #C0C0C0",
"+	c #000000",
"@	c #FFFFFF",
"#	c #FEFFF6",
"................",
"................",
"................",
"................",
"..+++++..+++++..",
".+@@@@@++@@@@@+.",
"+@@++++++++++@@+",
"+@+.+@@@@@#+.+@+",
"+@@++++++++++@@+",
".+@@@@@++@@@@@+.",
"..+++++..+++++..",
"................",
"................",
"................",
"................",
"................"};
