/* XPM */
static const char * printfile_xpm[] = {
"16 16 8 1",
" 	c None",
".	c #C0C0C0",
"+	c #000000",
"@	c #FFFFFF",
"#	c #C3C3C3",
"$	c #0C0C0C",
"%	c #9C9C9C",
"&	c #FFFF48",
"................",
".....+++++++++..",
"....+@@@@@@@@+..",
"....+@+++++@+...",
"...+@@@@@@@@+...",
"...+@+++++@++++.",
"..+@@@@@@@@+.+.+",
"#+++++$$$$$.+#++",
"+..........+.+.+",
"+++++++++++++..+",
"+......%%%..+.+.",
"+......&&&..+++.",
"+++++++++++++.+.",
".+.........+.+..",
"..+++++++++++...",
"................"};
