/* XPM */
static const char * unlinktasks_xpm[] = {
"16 16 12 1",
" 	c None",
".	c #C0C0C0",
"+	c #000000",
"@	c #000004",
"#	c #000001",
"$	c #FFFFFF",
"%	c #F9FFFF",
"&	c #0A0A2A",
"*	c #00000B",
"=	c #14123A",
"-	c #000005",
";	c #19193B",
"................",
"..+....+....+...",
"...+...+...+....",
"................",
"..++++..++++@#..",
".+$$$%+..+$$$$+.",
"+$$+++++..&++$$+",
"+$+..........+$*",
"+$$+++..=+++-$$;",
".+$$$$+..+$$$$+.",
"..++++++..++++..",
"................",
"....+...+...+...",
"...+....+....+..",
"................",
"................"};
